<svg width="12" height="14" viewBox="0 0 12 14" fill="none" xmlns="http://www.w3.org/2000/svg">
<path d="M6 1.33333C5.38116 1.33333 4.78767 1.57917 4.35008 2.01675C3.9125 2.45434 3.66667 3.04783 3.66667 3.66667C3.66667 4.28551 3.9125 4.879 4.35008 5.31658C4.78767 5.75417 5.38116 6 6 6C6.61884 6 7.21233 5.75417 7.64992 5.31658C8.0875 4.879 8.33333 4.28551 8.33333 3.66667C8.33333 3.04783 8.0875 2.45434 7.64992 2.01675C7.21233 1.57917 6.61884 1.33333 6 1.33333ZM2.33333 3.66667C2.33333 2.69421 2.71964 1.76158 3.40727 1.07394C4.09491 0.386309 5.02754 0 6 0C6.97246 0 7.90509 0.386309 8.59273 1.07394C9.28036 1.76158 9.66667 2.69421 9.66667 3.66667C9.66667 4.63913 9.28036 5.57176 8.59273 6.25939C7.90509 6.94703 6.97246 7.33333 6 7.33333C5.02754 7.33333 4.09491 6.94703 3.40727 6.25939C2.71964 5.57176 2.33333 4.63913 2.33333 3.66667ZM0 11.3333C0 10.4493 0.351189 9.60143 0.976311 8.97631C1.60143 8.35119 2.44928 8 3.33333 8H8.66667C9.55072 8 10.3986 8.35119 11.0237 8.97631C11.6488 9.60143 12 10.4493 12 11.3333V13.3333H0V11.3333ZM3.33333 9.33333C2.8029 9.33333 2.29419 9.54405 1.91912 9.91912C1.54405 10.2942 1.33333 10.8029 1.33333 11.3333V12H10.6667V11.3333C10.6667 10.8029 10.456 10.2942 10.0809 9.91912C9.70581 9.54405 9.1971 9.33333 8.66667 9.33333H3.33333Z" fill="#3F5F73"/>
</svg>
