<svg viewBox="0 0 24 28" fill="none" xmlns="http://www.w3.org/2000/svg">
<path d="M5.58661 1H4.05774C2.369 1 1 2.36899 1 4.05772V23.1685C1 24.8572 2.369 26.2262 4.05774 26.2262H5.58661C7.27536 26.2262 8.64435 24.8572 8.64435 23.1685V4.05772C8.64435 2.36899 7.27536 1 5.58661 1Z" stroke="#3F5F73" stroke-width="2" stroke-linejoin="round"/>
<path d="M19.3464 1H17.8175C16.1288 1 14.7598 2.36899 14.7598 4.05772V23.1685C14.7598 24.8572 16.1288 26.2262 17.8175 26.2262H19.3464C21.0351 26.2262 22.4041 24.8572 22.4041 23.1685V4.05772C22.4041 2.36899 21.0351 1 19.3464 1Z" stroke="#3F5F73" stroke-width="2" stroke-linejoin="round"/>
</svg>
